<svg width="1001" height="394" viewBox="0 0 1001 394" fill="none" xmlns="http://www.w3.org/2000/svg">
<path d="M359.391 140.916V253.85H439.267V232.971H384.224V140.916H359.391Z" fill="white"/>
<path d="M449.829 197.225C450.145 191.952 451.463 187.576 453.783 184.097C456.103 180.617 459.056 177.822 462.641 175.714C466.226 173.605 470.233 172.128 474.662 171.285C479.196 170.336 483.73 169.861 488.265 169.861C492.377 169.861 496.542 170.178 500.76 170.81C504.978 171.337 508.827 172.445 512.307 174.132C515.786 175.819 518.633 178.192 520.848 181.25C523.062 184.202 524.169 188.156 524.169 193.112V235.66C524.169 239.351 524.38 242.883 524.802 246.258C525.224 249.632 525.962 252.163 527.016 253.85H504.24C503.818 252.585 503.449 251.319 503.133 250.054C502.922 248.683 502.764 247.312 502.658 245.941C499.073 249.632 494.855 252.216 490.004 253.692C485.154 255.168 480.198 255.906 475.136 255.906C471.235 255.906 467.597 255.432 464.223 254.483C460.848 253.534 457.896 252.057 455.365 250.054C452.834 248.05 450.831 245.52 449.355 242.462C447.984 239.404 447.298 235.766 447.298 231.548C447.298 226.908 448.089 223.112 449.671 220.16C451.358 217.102 453.467 214.676 455.998 212.884C458.634 211.091 461.586 209.773 464.855 208.929C468.23 207.98 471.604 207.242 474.978 206.715C478.353 206.188 481.674 205.766 484.943 205.45C488.212 205.133 491.112 204.659 493.642 204.026C496.173 203.393 498.177 202.497 499.653 201.337C501.129 200.072 501.815 198.279 501.709 195.959C501.709 193.534 501.287 191.636 500.444 190.265C499.706 188.789 498.651 187.682 497.28 186.944C496.015 186.1 494.486 185.573 492.693 185.362C491.006 185.046 489.161 184.887 487.157 184.887C482.729 184.887 479.249 185.836 476.718 187.735C474.187 189.633 472.711 192.796 472.289 197.225H449.829ZM501.709 213.833C500.76 214.676 499.547 215.362 498.071 215.889C496.7 216.311 495.171 216.68 493.484 216.996C491.903 217.313 490.215 217.576 488.423 217.787C486.63 217.998 484.838 218.262 483.045 218.578C481.358 218.894 479.671 219.316 477.983 219.843C476.402 220.37 474.978 221.109 473.713 222.058C472.553 222.901 471.604 224.008 470.866 225.379C470.128 226.75 469.759 228.49 469.759 230.599C469.759 232.602 470.128 234.29 470.866 235.66C471.604 237.031 472.606 238.138 473.871 238.982C475.136 239.72 476.613 240.247 478.3 240.564C479.987 240.88 481.727 241.038 483.519 241.038C487.948 241.038 491.375 240.3 493.801 238.824C496.226 237.347 498.018 235.608 499.178 233.604C500.338 231.495 501.024 229.386 501.235 227.277C501.551 225.168 501.709 223.481 501.709 222.216V213.833Z" fill="white"/>
<path d="M541.603 172.076V253.85H564.063V210.986C564.063 202.655 565.434 196.698 568.176 193.112C570.917 189.422 575.346 187.576 581.462 187.576C586.84 187.576 590.583 189.264 592.692 192.638C594.801 195.907 595.855 200.915 595.855 207.664V253.85H618.316V203.552C618.316 198.49 617.841 193.903 616.892 189.791C616.049 185.573 614.52 182.04 612.305 179.193C610.091 176.241 607.033 173.974 603.131 172.392C599.335 170.705 594.432 169.861 588.421 169.861C583.676 169.861 579.037 170.968 574.502 173.183C569.968 175.292 566.277 178.719 563.43 183.464H562.956V172.076H541.603Z" fill="white"/>
<path d="M663.833 172.076V147.559H641.373V172.076H627.77V187.102H641.373V235.344C641.373 239.456 642.058 242.778 643.429 245.309C644.8 247.84 646.645 249.79 648.965 251.161C651.39 252.532 654.132 253.428 657.19 253.85C660.353 254.377 663.675 254.641 667.155 254.641C669.369 254.641 671.636 254.588 673.956 254.483C676.276 254.377 678.385 254.166 680.283 253.85V236.451C679.228 236.662 678.121 236.82 676.961 236.926C675.801 237.031 674.589 237.084 673.323 237.084C669.527 237.084 666.997 236.451 665.731 235.186C664.466 233.92 663.833 231.39 663.833 227.594V187.102H680.283V172.076H663.833Z" fill="white"/>
<path d="M746.013 204.184H709.475C709.581 202.603 709.897 200.81 710.424 198.807C711.057 196.803 712.059 194.905 713.43 193.112C714.906 191.32 716.804 189.843 719.124 188.684C721.549 187.418 724.554 186.786 728.14 186.786C733.623 186.786 737.682 188.262 740.319 191.214C743.06 194.167 744.958 198.49 746.013 204.184ZM709.475 218.42H768.473C768.895 212.093 768.368 206.03 766.891 200.23C765.415 194.43 762.99 189.264 759.616 184.729C756.347 180.195 752.129 176.61 746.962 173.974C741.795 171.232 735.732 169.861 728.772 169.861C722.551 169.861 716.857 170.968 711.69 173.183C706.628 175.397 702.252 178.455 698.562 182.357C694.871 186.153 692.024 190.687 690.02 195.959C688.017 201.232 687.015 206.926 687.015 213.042C687.015 219.369 687.964 225.168 689.862 230.441C691.866 235.713 694.66 240.247 698.245 244.043C701.83 247.84 706.206 250.792 711.373 252.901C716.54 254.904 722.34 255.906 728.772 255.906C738.052 255.906 745.96 253.797 752.498 249.579C759.036 245.361 763.886 238.349 767.05 228.543H747.278C746.54 231.073 744.537 233.499 741.268 235.819C737.999 238.033 734.097 239.14 729.563 239.14C723.236 239.14 718.386 237.506 715.011 234.237C711.637 230.968 709.792 225.696 709.475 218.42Z" fill="white"/>
<path d="M781.794 172.076V253.85H804.254V216.996C804.254 213.306 804.623 209.878 805.362 206.715C806.1 203.552 807.312 200.81 808.999 198.49C810.792 196.065 813.112 194.167 815.959 192.796C818.806 191.425 822.286 190.74 826.398 190.74C827.769 190.74 829.193 190.845 830.669 191.056C832.145 191.162 833.411 191.32 834.465 191.531V170.652C832.672 170.125 831.038 169.861 829.562 169.861C826.715 169.861 823.973 170.283 821.337 171.127C818.701 171.97 816.223 173.183 813.903 174.765C811.583 176.241 809.527 178.086 807.734 180.301C805.941 182.409 804.518 184.729 803.463 187.26H803.147V172.076H781.794Z" fill="white"/>
<path d="M846.051 172.076V253.85H868.511V210.986C868.511 202.655 869.882 196.698 872.624 193.112C875.365 189.422 879.794 187.576 885.91 187.576C891.288 187.576 895.031 189.264 897.14 192.638C899.249 195.907 900.304 200.915 900.304 207.664V253.85H922.764V203.552C922.764 198.49 922.289 193.903 921.34 189.791C920.497 185.573 918.968 182.04 916.753 179.193C914.539 176.241 911.481 173.974 907.58 172.392C903.783 170.705 898.88 169.861 892.87 169.861C888.124 169.861 883.485 170.968 878.951 173.183C874.416 175.292 870.726 178.719 867.879 183.464H867.404V172.076H846.051Z" fill="white"/>
<path fill-rule="evenodd" clip-rule="evenodd" d="M280.654 96.1691L280.654 96.1633C280.689 86.2883 269.933 80.1527 261.45 85.211L247.765 93.3714L92.5688 182.448C84.2889 187.201 81.4416 197.773 86.215 206.041L142.255 303.106C145.338 308.444 151.034 311.733 157.199 311.733H263.399C272.929 311.733 280.654 304.008 280.654 294.478L280.654 96.1691ZM201.612 190.709H119.762L242.537 119.825L201.612 190.709ZM259.867 270.825L219.614 201.104L259.867 131.384V270.825ZM151.489 277.525L113.367 211.496H189.611L151.489 277.525ZM247.481 290.946H167.744L207.612 221.891L247.481 290.946Z" fill="white"/>
</svg>
